# xmcd
#
# Track frame offsets: 
#        150
#        17725
#        32346
#        52147
#        68050
#        82688
#        99538
#        112604
#        129800
#        148557
#        166194
#        179443
#        197342
#
# Disc length: 2906 seconds
#
# Revision: 0
# Processed by: cddbd v1.5.1PL2 Copyright (c) Steve Scherf et al.
# Submitted via: ExactAudioCopy v0.95b3
#
DISCID=940b580d
DTITLE=千百惠 - 走过咖啡屋
DYEAR=1900
DGENRE=Country
TTITLE0=想你的时候
TTITLE1=窗的追想
TTITLE2=依然爱你
TTITLE3=让我走
TTITLE4=在雪中
TTITLE5=最爱你
TTITLE6=走过咖啡屋
TTITLE7=梦的告白
TTITLE8=离开你
TTITLE9=我伫立在这里
TTITLE10=他的名字叫回忆
TTITLE11=烟雨蒙蒙
TTITLE12=忘了伤心的人
EXTD=
EXTT0=
EXTT1=
EXTT2=
EXTT3=
EXTT4=
EXTT5=
EXTT6=
EXTT7=
EXTT8=
EXTT9=
EXTT10=
EXTT11=
EXTT12=
PLAYORDER=
